<svg xmlns="http://www.w3.org/2000/svg" width="512" height="512" viewBox="0 0 512 512">
  <defs>
    <linearGradient id="g1" x1="0" y1="0" x2="1" y2="1">
      <stop offset="0" stop-color="#ff8a7a"/>
      <stop offset="1" stop-color="#e24b6b"/>
    </linearGradient>
    <linearGradient id="g2" x1="0" y1="0" x2="1" y2="1">
      <stop offset="0" stop-color="#ffd88a"/>
      <stop offset="1" stop-color="#ffb84d"/>
    </linearGradient>
    <linearGradient id="g3" x1="0" y1="0" x2="1" y2="1">
      <stop offset="0" stop-color="#9be7d6"/>
      <stop offset="1" stop-color="#57c7a7"/>
    </linearGradient>
    <linearGradient id="g4" x1="0" y1="0" x2="1" y2="1">
      <stop offset="0" stop-color="#c9c7ff"/>
      <stop offset="1" stop-color="#8ea2ff"/>
    </linearGradient>
    <filter id="shadow" x="-20%" y="-20%" width="140%" height="140%">
      <feDropShadow dx="0" dy="16" stdDeviation="22" flood-color="#d97" flood-opacity="0.35"/>
    </filter>
  </defs>
  <rect x="0" y="0" width="512" height="512" rx="256" fill="#f5efe9"/>
  <g filter="url(#shadow)">
    <rect x="120" y="140" width="272" height="196" rx="28" fill="url(#g1)"/>
    <rect x="104" y="124" width="272" height="196" rx="28" fill="url(#g2)"/>
    <rect x="88" y="108" width="272" height="196" rx="28" fill="url(#g3)"/>
    <rect x="72" y="92" width="272" height="196" rx="28" fill="url(#g4)"/>
  </g>
  <g>
    <circle cx="120" cy="84" r="10" fill="#ff7f50"/>
    <circle cx="420" cy="240" r="8" fill="#80deea"/>
    <circle cx="360" cy="96" r="7" fill="#ffd54f"/>
    <circle cx="180" cy="280" r="6" fill="#ba68c8"/>
  </g>
  <g font-family="Inter, system-ui, -apple-system, Segoe UI, Roboto" text-anchor="middle">
    <text x="256" y="380" font-size="96" font-weight="800" fill="#ffffff" stroke="#ce5e62" stroke-width="2">CS</text>
  </g>
</svg>
